<svg xmlns="http://www.w3.org/2000/svg" viewBox="0 0 400 100">
  <defs>
    <linearGradient id="blueGrad" x1="0%" y1="0%" x2="100%" y2="0%">
      <stop offset="0%" style="stop-color:#3b82f6;stop-opacity:1" />
      <stop offset="100%" style="stop-color:#1d4ed8;stop-opacity:1" />
    </linearGradient>
  </defs>
  <!-- "marketing" text simulation with paths -->
  <g fill="#FFFFFF">
    <path d="M20 70V40h8v4a10 10 0 0 1 18 0V70h-8V46a4 4 0 0 0-8 0v24h-8V46a4 4 0 0 0-8 0v24H20zM60 70V46a10 10 0 0 1 20 0v24h-8V46a4 4 0 0 0-8 0v24h-4zM90 70V40h8v30h-8zM110 70V40h8v30h-8zM130 70V46a10 10 0 0 1 20 0v24h-8V46a4 4 0 0 0-8 0v24h-4zM160 70V46a10 10 0 0 1 20 0v24h-8V46a4 4 0 0 0-8 0v24h-4zM190 70V40h8v30h-8z"/>
  </g>
  <!-- "XP" emphasis -->
  <g transform="translate(240, 0)">
    <rect x="0" y="25" width="100" height="50" rx="12" fill="url(#blueGrad)" />
    <path d="M30 65l15-20 15 20h10L50 40l20-25H60L45 35 30 15H20l20 25-20 25h10z" fill="#FFFFFF" />
    <path d="M75 65V35h10V65h-10zM75 25V15h10V25h-10z" fill="#FFFFFF" />
  </g>
</svg>